<svg width="440" height="36" viewBox="0 0 440 36" fill="none" xmlns="http://www.w3.org/2000/svg">
<path d="M163.994 0.0976562C169.506 0.0976733 175.748 1.78251 180.062 5.35645L175.387 11.9287C173.333 10.2419 170.946 8.96266 168.376 8.27734C162.884 6.77949 155.481 7.99946 152.553 13.4385C151.15 16.0442 151.144 19.5691 152.602 22.1533C155.799 27.5754 163.932 29.0326 169.545 27.1191C171.998 26.2272 174.131 24.7975 176.264 23.3213L180.158 29.748C177.406 31.9495 174.021 33.4741 170.664 34.4707C161.374 37.1249 149.187 34.0669 144.617 24.9277C141.237 18.0638 143.345 9.8159 149.145 5.01562C153.277 1.58366 158.687 0.0976917 163.994 0.0976562ZM315.062 0C318.21 0 321.099 0.454562 323.728 1.36328C326.357 2.23961 328.629 3.48949 330.544 5.1123C332.459 6.70275 333.936 8.56968 334.975 10.7119C336.046 12.8541 336.581 15.1747 336.581 17.6738C336.581 20.173 336.046 22.4936 334.975 24.6357C333.936 26.778 332.459 28.6613 330.544 30.2842C328.629 31.8745 326.357 33.1235 323.728 34.0322C321.099 34.9085 318.226 35.3477 315.11 35.3477C311.897 35.3477 308.976 34.9086 306.347 34.0322C303.718 33.1234 301.445 31.8746 299.53 30.2842C297.615 28.6613 296.122 26.778 295.051 24.6357C294.012 22.4936 293.493 20.1729 293.493 17.6738C293.493 15.1747 294.012 12.854 295.051 10.7119C296.122 8.56968 297.615 6.70275 299.53 5.1123C301.478 3.48941 303.75 2.23965 306.347 1.36328C308.976 0.454502 311.881 8.71906e-06 315.062 0ZM8.27734 13.5078H17.626L27.7031 0.779297H38.3652L24.126 17.3799L38.3174 34.8604H28.2383L17.626 22H8.27734V34.8604H0V0.779297H8.27734V13.5078ZM83.0664 7.83887H60.5244V14.168H82.126V20.8867H60.5244V27.8008H83.5537V34.8604H52.4912V0.779297H83.0664V7.83887ZM115.178 16.2227L126.062 0.779297H135.653L119.295 23.7422V34.8604H110.969V24.167L93.6367 0.779297H104.007L115.178 16.2227ZM202.17 14.3633H221.839V0.779297H230.116V34.8604H221.839V21.7637H202.17V34.8604H193.893V0.779297H202.17V14.3633ZM266.578 0.779297C269.305 0.779297 271.626 1.23375 273.541 2.14258C275.456 3.01894 276.917 4.28515 277.923 5.94043C278.929 7.56327 279.432 9.47854 279.432 11.6855C279.432 13.8601 278.863 15.8235 277.728 17.5762C276.592 19.2964 273.626 21.666 267.103 21.666C266.709 21.8627 274.306 25.0374 273.894 25.1943L281.477 34.8604H271.837L262.999 23.127H254.699V34.8604H246.812V0.779297H266.578ZM371.579 17.1162L384.773 0.779297H392.174V34.8604H384.141V23.7598C384.141 21.0657 384.205 18.5335 384.335 16.1641C384.389 15.1844 384.465 14.1965 384.563 13.2002L373.187 26.584H369.973L358.601 13.2734C358.695 14.245 358.771 15.2084 358.823 16.1641C358.953 18.5335 359.019 21.0657 359.019 23.7598V34.8604H350.984V0.779297H358.385L371.579 17.1162ZM439.519 7.83887H416.977V14.168H439.328V20.8867H416.977V27.8008H440.006V34.8604H408.943V0.779297H439.519V7.83887ZM315.062 7.79004C313.147 7.79005 311.378 8.05004 309.755 8.56934C308.164 9.05621 306.768 9.75426 305.567 10.6631C304.399 11.5394 303.506 12.5784 302.89 13.7793C302.273 14.9801 301.965 16.2783 301.965 17.6738C301.965 19.0694 302.273 20.3675 302.89 21.5684C303.506 22.7692 304.399 23.8246 305.567 24.7334C306.768 25.6098 308.164 26.3078 309.755 26.8271C311.378 27.314 313.147 27.5576 315.062 27.5576C316.977 27.5576 318.73 27.314 320.32 26.8271C321.943 26.3078 323.338 25.6097 324.507 24.7334C325.675 23.8246 326.568 22.7693 327.185 21.5684C327.834 20.3675 328.158 19.0694 328.158 17.6738C328.158 16.2782 327.834 14.9802 327.185 13.7793C326.568 12.5784 325.675 11.5394 324.507 10.6631C323.338 9.75434 321.943 9.0562 320.32 8.56934C318.73 8.05001 316.977 7.79004 315.062 7.79004ZM254.699 16.7979H265.604C266.578 16.7979 267.471 16.6024 268.282 16.2129C269.126 15.8234 269.791 15.288 270.278 14.6064C270.798 13.8924 271.058 13.0643 271.058 12.123C271.058 11.182 270.797 10.3873 270.278 9.73828C269.791 9.08912 269.126 8.58556 268.282 8.22852C267.438 7.87153 266.513 7.69336 265.507 7.69336H254.699V16.7979Z" fill="white"/>
</svg>
